<svg xmlns="http://www.w3.org/2000/svg" viewBox="0 0 128 40" role="img" aria-label="Apple Pay">
  <rect width="128" height="40" rx="8" fill="#fff"/>
  <path d="M31 22.6c-.1-2.8 2.3-4.2 2.4-4.3-1.3-1.9-3.3-2.2-4-2.2-1.7-.2-3.2 1-4.1 1-1 0-2.2-1-3.6-1-1.8 0-3.6 1.1-4.6 2.8-2 3.4-.5 8.5 1.4 11.2.9 1.3 2 2.8 3.5 2.7 1.4-.1 2-.9 3.7-.9 1.7 0 2.2.9 3.8.9 1.6 0 2.6-1.4 3.5-2.7 1.1-1.6 1.6-3.2 1.6-3.2 0 0-3.1-1.2-3.2-4.3zM28.2 14.3c.7-.9 1.2-2.1 1-3.3-1 .1-2.3.7-3 1.6-.7.8-1.3 2.1-1.1 3.3 1.1.1 2.3-.6 3.1-1.6z" fill="#000"/>
  <text x="74" y="24" text-anchor="middle" font-family="Arial, sans-serif" font-size="14" font-weight="700" fill="#000">Pay</text>
</svg>
