<svg xmlns="http://www.w3.org/2000/svg" viewBox="0 0 128 40" role="img" aria-label="mada">
  <rect width="128" height="40" rx="8" fill="#fff"/>
  <path d="M28 27V13h4l3.4 7.8 3.5-7.8h4v14h-3.2v-8.2L36 26h-1.1l-3.6-7.2V27H28z" fill="#00A3E0"/>
  <path d="M49 27V13h5.2c3.2 0 5.4 1.8 5.4 4.7 0 2.8-2.2 4.6-5.4 4.6h-2V27H49zm3.2-7.4h1.7c1.5 0 2.5-.8 2.5-1.9s-1-2-2.5-2h-1.7v3.9z" fill="#7AC143"/>
  <path d="M66.5 27l5.6-14h3.2l5.6 14h-3.5l-1-2.7h-5.3l-1 2.7h-3.6zm5.9-5.3h3.4l-1.7-4.6-1.7 4.6z" fill="#662D91"/>
  <text x="96" y="24" font-family="Arial, sans-serif" font-size="14" font-weight="700" fill="#0068B3">mada</text>
</svg>
