<svg xmlns="http://www.w3.org/2000/svg" viewBox="0 0 128 40" role="img" aria-label="Visa">
  <rect width="128" height="40" rx="8" fill="#fff"/>
  <path d="M51.9 27.7h-6.3l3.9-15.4h6.3l-3.9 15.4zM78.5 12.7c-1.2-.5-3-.9-5.4-.9-5.9 0-10 3-10.1 7.4-.1 3.2 2.9 5 5.1 6 2.2 1 3 1.7 3 2.6 0 1.4-1.7 2-3.3 2-2.2 0-3.4-.3-5.2-1.1l-.7-.3-.8 4.9c1.3.6 3.7 1.1 6.2 1.1 6.2 0 10.2-3 10.3-7.7 0-2.6-1.6-4.6-4.9-6.1-2-.9-3.2-1.5-3.2-2.5 0-.8.9-1.7 3-1.7 1.7 0 3 .4 3.9.8l.5.2.8-4.7zM86.8 22.3l2.5-6.7 1.4 6.7h-3.9zm7.7-10h-4.9c-1.5 0-2.7.4-3.4 2l-9.4 13.4h6.2l1.3-3.5h7.6l.8 3.5h5.5l-3.7-15.4zM42.5 12.3l-6.2 10.5-.7-3.4c-1.1-3.5-4.6-7.2-8.5-9.1l5.7 17.3h6.2l9.2-15.4h-5.7z" fill="#1A1F71"/>
  <path d="M34.9 12.3h-9.4l-.1.5c7.3 1.8 12.1 6.1 14.1 11.3l-2-9.9c-.3-1.5-1.5-1.9-2.6-1.9z" fill="#F7B600"/>
</svg>
